<svg width="244" height="103" viewBox="0 0 244 103" fill="none" xmlns="http://www.w3.org/2000/svg">
<path d="M140 34.1V69H133V46.3L123.65 69H118.35L108.95 46.3V69H101.95V34.1H109.9L121 60.05L132.1 34.1H140ZM150.47 38C149.237 38 148.204 37.6167 147.37 36.85C146.57 36.05 146.17 35.0667 146.17 33.9C146.17 32.7333 146.57 31.7667 147.37 31C148.204 30.2 149.237 29.8 150.47 29.8C151.704 29.8 152.72 30.2 153.52 31C154.354 31.7667 154.77 32.7333 154.77 33.9C154.77 35.0667 154.354 36.05 153.52 36.85C152.72 37.6167 151.704 38 150.47 38ZM153.92 41.3V69H146.92V41.3H153.92ZM176.186 40.9C179.486 40.9 182.153 41.95 184.186 44.05C186.22 46.1167 187.236 49.0167 187.236 52.75V69H180.236V53.7C180.236 51.5 179.686 49.8167 178.586 48.65C177.486 47.45 175.986 46.85 174.086 46.85C172.153 46.85 170.62 47.45 169.486 48.65C168.386 49.8167 167.836 51.5 167.836 53.7V69H160.836V41.3H167.836V44.75C168.77 43.55 169.953 42.6167 171.386 41.95C172.853 41.25 174.453 40.9 176.186 40.9ZM200.893 34.1V69H193.893V34.1H200.893ZM232.109 44.6C231.309 43.1333 230.209 42.0167 228.809 41.25C227.409 40.4833 225.776 40.1 223.909 40.1C221.842 40.1 220.009 40.5667 218.409 41.5C216.809 42.4333 215.559 43.7667 214.659 45.5C213.759 47.2333 213.309 49.2333 213.309 51.5C213.309 53.8333 213.759 55.8667 214.659 57.6C215.592 59.3333 216.876 60.6667 218.509 61.6C220.142 62.5333 222.042 63 224.209 63C226.876 63 229.059 62.3 230.759 60.9C232.459 59.4667 233.576 57.4833 234.109 54.95H222.109V49.6H241.009V55.7C240.542 58.1333 239.542 60.3833 238.009 62.45C236.476 64.5167 234.492 66.1833 232.059 67.45C229.659 68.6833 226.959 69.3 223.959 69.3C220.592 69.3 217.542 68.55 214.809 67.05C212.109 65.5167 209.976 63.4 208.409 60.7C206.876 58 206.109 54.9333 206.109 51.5C206.109 48.0667 206.876 45 208.409 42.3C209.976 39.5667 212.109 37.45 214.809 35.95C217.542 34.4167 220.576 33.65 223.909 33.65C227.842 33.65 231.259 34.6167 234.159 36.55C237.059 38.45 239.059 41.1333 240.159 44.6H232.109Z" fill="white"/>
<path fill-rule="evenodd" clip-rule="evenodd" d="M25.56 82.1686C30.0638 82.1686 33.7513 78.4811 33.7513 73.9774V29.8274C33.7513 25.3212 30.065 21.6324 25.56 21.6324C21.0538 21.6324 17.3688 25.3199 17.3688 29.8274V73.9774C17.3688 78.4811 21.0525 82.1686 25.56 82.1686Z" fill="#1DABBC"/>
<path fill-rule="evenodd" clip-rule="evenodd" d="M41.9425 95.4699C46.45 95.4699 50.1362 91.7861 50.1362 87.2787V18.5163C50.1362 14.01 46.45 10.3213 41.9425 10.3213C37.4387 10.3213 33.7512 14.0088 33.7512 18.5163V87.2787C33.7512 91.7861 37.4387 95.4699 41.9425 95.4699Z" fill="#25C2CE"/>
<path fill-rule="evenodd" clip-rule="evenodd" d="M58.3275 89.8162C62.8337 89.8162 66.5187 86.13 66.5187 81.6237V14.1925C66.5187 9.6825 62.8337 6 58.3275 6C53.8212 6 50.1362 9.6825 50.1362 14.1925V81.6237C50.1362 86.13 53.8212 89.8162 58.3275 89.8162Z" fill="#1D97A0"/>
<path fill-rule="evenodd" clip-rule="evenodd" d="M74.7124 85.4951C79.2187 85.4951 82.9024 81.8076 82.9024 77.3001V24.5037C82.9024 19.995 79.2199 16.3125 74.7124 16.3125C70.2037 16.3125 66.5199 19.995 66.5199 24.5037V77.3001C66.5199 81.8063 70.2037 85.4951 74.7124 85.4951Z" fill="#1DABBC"/>
<path fill-rule="evenodd" clip-rule="evenodd" d="M33.5424 26.7212C8.89876 43.2649 20.7275 81.6174 50.1573 81.6174C79.5872 81.6174 91.4284 43.2924 66.7685 26.7212C56.8061 20.0224 43.5074 20.0299 33.5424 26.7212Z" fill="#FEFEFE"/>
<path fill-rule="evenodd" clip-rule="evenodd" d="M37.5963 32.8088C18.97 45.3151 27.9113 74.3026 50.1563 74.3026C72.4014 74.3026 81.3526 45.3351 62.7151 32.8088C55.1801 27.7475 45.1288 27.75 37.5963 32.8088Z" fill="#D5D5D7"/>
<path fill-rule="evenodd" clip-rule="evenodd" d="M40.1374 36.6163C25.2749 46.5951 32.4086 69.7238 50.1562 69.7238C67.9037 69.7238 75.0462 46.6113 60.1749 36.6163C54.1637 32.58 46.1449 32.58 40.1361 36.6163H40.1374Z" fill="#5F5F5F"/>
<path fill-rule="evenodd" clip-rule="evenodd" d="M41.3174 38.3862C28.2024 47.19 34.4986 67.5987 50.1574 67.5987C65.8161 67.5987 72.1174 47.205 58.9986 38.3862C53.6936 34.8262 46.6174 34.8262 41.3174 38.3862Z" fill="#434443"/>
<path fill-rule="evenodd" clip-rule="evenodd" d="M45.2524 44.2963C37.9799 49.1813 41.4712 60.5013 50.1574 60.5013C58.8437 60.5013 62.3374 49.1863 55.0612 44.2963C52.1212 42.3176 48.1949 42.3213 45.2524 44.2963Z" fill="#22201E"/>
<path fill-rule="evenodd" clip-rule="evenodd" d="M44.575 48.6825C41.1362 46.3737 42.7862 41.0212 46.8925 41.0212C50.9987 41.0212 52.6487 46.3675 49.2099 48.6825C47.82 49.6162 45.965 49.6125 44.575 48.6825Z" fill="#BABCBE"/>
<path fill-rule="evenodd" clip-rule="evenodd" d="M54.1162 60.3976C52.4275 59.2601 53.2387 56.6276 55.2575 56.6276C57.2762 56.6276 58.0912 59.2588 56.3975 60.3976C55.715 60.8576 54.8 60.8576 54.1162 60.3976Z" fill="#FEFEFE"/>
</svg>
