<?xml version="1.0" encoding="UTF-8"?><svg id="_9" xmlns="http://www.w3.org/2000/svg" viewBox="0 0 800 800"><defs><style>.cls-1{fill:#5f5f5f;}.cls-1,.cls-2,.cls-3,.cls-4,.cls-5,.cls-6,.cls-7,.cls-8,.cls-9{fill-rule:evenodd;}.cls-2{fill:#25c2ce;}.cls-3{fill:#434443;}.cls-4{fill:#22201e;}.cls-5{fill:#1d97a0;}.cls-6{fill:#1dabbc;}.cls-7{fill:#d5d5d7;}.cls-8{fill:#babcbe;}.cls-9{fill:#fefefe;}</style></defs><path class="cls-6" d="m204.48,649.35h0c36.03,0,65.53-29.5,65.53-65.53V230.62c0-36.05-29.49-65.56-65.53-65.56h0c-36.05,0-65.53,29.5-65.53,65.56v353.2c0,36.03,29.47,65.53,65.53,65.53h0Z"/><path class="cls-2" d="m335.54,755.76h0c36.06,0,65.55-29.47,65.55-65.53V140.13c0-36.05-29.49-65.56-65.55-65.56h0c-36.03,0-65.53,29.5-65.53,65.56v550.1c0,36.06,29.5,65.53,65.53,65.53h0Z"/><path class="cls-5" d="m466.62,710.53h0c36.05,0,65.53-29.49,65.53-65.54V105.54c0-36.08-29.48-65.54-65.53-65.54h0c-36.05,0-65.53,29.46-65.53,65.54v539.45c0,36.05,29.48,65.54,65.53,65.54h0Z"/><path class="cls-6" d="m597.7,675.96h0c36.05,0,65.52-29.5,65.52-65.56V188.03c0-36.07-29.46-65.53-65.52-65.53h0c-36.07,0-65.54,29.46-65.54,65.53v422.37c0,36.05,29.47,65.56,65.54,65.56h0Z"/><path class="cls-9" d="m268.34,205.77c-197.15,132.35-102.52,439.17,132.92,439.17s330.17-306.6,132.89-439.17c-79.7-53.59-186.09-53.53-265.81,0h0Z"/><path class="cls-7" d="m300.77,254.47c-149.01,100.05-77.48,331.95,100.48,331.95s249.57-231.74,100.47-331.95c-60.28-40.49-140.69-40.47-200.95,0h0Z"/><path class="cls-1" d="m321.1,284.93c-118.9,79.83-61.83,264.86,80.15,264.86s199.12-184.9,80.15-264.86c-48.09-32.29-112.24-32.29-160.31,0h0Z"/><path class="cls-3" d="m330.54,299.09c-104.92,70.43-54.55,233.7,70.72,233.7s175.68-163.15,70.73-233.7c-42.44-28.48-99.05-28.48-141.45,0h0Z"/><path class="cls-4" d="m362.02,346.37c-58.18,39.08-30.25,129.64,39.24,129.64s97.44-90.52,39.23-129.64c-23.52-15.83-54.93-15.8-78.47,0h0Z"/><path class="cls-8" d="m356.6,381.46c-27.51-18.47-14.31-61.29,18.54-61.29s46.05,42.77,18.54,61.29c-11.12,7.47-25.96,7.44-37.08,0h0Z"/><path class="cls-9" d="m432.93,475.18c-13.51-9.1-7.02-30.16,9.13-30.16s22.67,21.05,9.12,30.16c-5.46,3.68-12.78,3.68-18.25,0h0Z"/></svg>